M48
; DRILL file {KiCad 9.0.3} date 2025-08-01T16:24:02-0500
; FORMAT={-:-/ absolute / metric / decimal}
; #@! TF.CreationDate,2025-08-01T16:24:02-05:00
; #@! TF.GenerationSoftware,Kicad,Pcbnew,9.0.3
; #@! TF.FileFunction,Plated,1,2,PTH
FMAT,2
METRIC
; #@! TA.AperFunction,Plated,PTH,ComponentDrill
T1C0.700
; #@! TA.AperFunction,Plated,PTH,ComponentDrill
T2C0.889
; #@! TA.AperFunction,Plated,PTH,ComponentDrill
T3C1.210
; #@! TA.AperFunction,Plated,PTH,ComponentDrill
T4C1.500
%
G90
G05
T1
X102.394Y-95.25
X102.394Y-100.33
X121.444Y-95.25
X121.444Y-100.33
X140.494Y-95.25
X140.494Y-100.33
X159.544Y-95.25
X159.544Y-100.33
T2
X116.205Y-70.961
X116.205Y-73.501
X116.205Y-76.041
X116.205Y-78.581
X116.205Y-81.121
X116.205Y-83.661
X116.205Y-86.201
X131.445Y-70.961
X131.445Y-73.501
X131.445Y-76.041
X131.445Y-78.581
X131.445Y-81.121
X131.445Y-83.661
X131.445Y-86.201
T3
X93.98Y-97.631
X96.52Y-97.631
X114.3Y-97.631
X116.84Y-97.631
X132.171Y-98.018
X134.711Y-98.018
X151.13Y-97.631
X153.67Y-97.631
T4
X91.835Y-109.378
X98.185Y-106.838
X110.807Y-109.379
X117.157Y-106.839
X129.784Y-109.434
X136.134Y-106.894
X148.764Y-109.434
X155.114Y-106.894
M30
