%TF.GenerationSoftware,KiCad,Pcbnew,9.0.3*%
%TF.CreationDate,2025-08-01T16:23:24-05:00*%
%TF.ProjectId,pathfinder,70617468-6669-46e6-9465-722e6b696361,rev?*%
%TF.SameCoordinates,Original*%
%TF.FileFunction,Soldermask,Bot*%
%TF.FilePolarity,Negative*%
%FSLAX46Y46*%
G04 Gerber Fmt 4.6, Leading zero omitted, Abs format (unit mm)*
G04 Created by KiCad (PCBNEW 9.0.3) date 2025-08-01 16:23:24*
%MOMM*%
%LPD*%
G01*
G04 APERTURE LIST*
G04 Aperture macros list*
%AMRoundRect*
0 Rectangle with rounded corners*
0 $1 Rounding radius*
0 $2 $3 $4 $5 $6 $7 $8 $9 X,Y pos of 4 corners*
0 Add a 4 corners polygon primitive as box body*
4,1,4,$2,$3,$4,$5,$6,$7,$8,$9,$2,$3,0*
0 Add four circle primitives for the rounded corners*
1,1,$1+$1,$2,$3*
1,1,$1+$1,$4,$5*
1,1,$1+$1,$6,$7*
1,1,$1+$1,$8,$9*
0 Add four rect primitives between the rounded corners*
20,1,$1+$1,$2,$3,$4,$5,0*
20,1,$1+$1,$4,$5,$6,$7,0*
20,1,$1+$1,$6,$7,$8,$9,0*
20,1,$1+$1,$8,$9,$2,$3,0*%
G04 Aperture macros list end*
%ADD10C,2.019000*%
%ADD11RoundRect,0.102000X-0.907500X-0.907500X0.907500X-0.907500X0.907500X0.907500X-0.907500X0.907500X0*%
%ADD12C,1.400000*%
%ADD13C,1.700000*%
%ADD14C,4.000000*%
%ADD15C,2.200000*%
%ADD16C,1.524000*%
G04 APERTURE END LIST*
D10*
%TO.C,D2*%
X116840000Y-97631250D03*
D11*
X114300000Y-97631250D03*
%TD*%
D12*
%TO.C,R3*%
X140493750Y-100330000D03*
X140493750Y-95250000D03*
%TD*%
D10*
%TO.C,D3*%
X134710725Y-98017989D03*
D11*
X132170725Y-98017989D03*
%TD*%
D13*
%TO.C,SW4*%
X147494461Y-111974033D03*
D14*
X152574461Y-111974033D03*
D13*
X157654461Y-111974033D03*
D15*
X155114461Y-106894033D03*
X148764461Y-109434033D03*
%TD*%
D13*
%TO.C,SW1*%
X90565419Y-111918470D03*
D14*
X95645419Y-111918470D03*
D13*
X100725419Y-111918470D03*
D15*
X98185419Y-106838470D03*
X91835419Y-109378470D03*
%TD*%
D10*
%TO.C,D4*%
X153670000Y-97631250D03*
D11*
X151130000Y-97631250D03*
%TD*%
D12*
%TO.C,R4*%
X159543750Y-100330000D03*
X159543750Y-95250000D03*
%TD*%
D13*
%TO.C,SW2*%
X109537500Y-111918750D03*
D14*
X114617500Y-111918750D03*
D13*
X119697500Y-111918750D03*
D15*
X117157500Y-106838750D03*
X110807500Y-109378750D03*
%TD*%
D10*
%TO.C,D1*%
X96520000Y-97631250D03*
D11*
X93980000Y-97631250D03*
%TD*%
D16*
%TO.C,U1*%
X116205000Y-70961250D03*
X116205000Y-73501250D03*
X116205000Y-76041250D03*
X116205000Y-78581250D03*
X116205000Y-81121250D03*
X116205000Y-83661250D03*
X116205000Y-86201250D03*
X131445000Y-86201250D03*
X131445000Y-83661250D03*
X131445000Y-81121250D03*
X131445000Y-78581250D03*
X131445000Y-76041250D03*
X131445000Y-73501250D03*
X131445000Y-70961250D03*
%TD*%
D13*
%TO.C,SW3*%
X128514241Y-111974033D03*
D14*
X133594241Y-111974033D03*
D13*
X138674241Y-111974033D03*
D15*
X136134241Y-106894033D03*
X129784241Y-109434033D03*
%TD*%
D12*
%TO.C,R2*%
X121443750Y-100330000D03*
X121443750Y-95250000D03*
%TD*%
%TO.C,R1*%
X102393750Y-100330000D03*
X102393750Y-95250000D03*
%TD*%
M02*
