%TF.GenerationSoftware,KiCad,Pcbnew,9.0.3*%
%TF.CreationDate,2025-08-01T16:23:24-05:00*%
%TF.ProjectId,pathfinder,70617468-6669-46e6-9465-722e6b696361,rev?*%
%TF.SameCoordinates,Original*%
%TF.FileFunction,Copper,L1,Top*%
%TF.FilePolarity,Positive*%
%FSLAX46Y46*%
G04 Gerber Fmt 4.6, Leading zero omitted, Abs format (unit mm)*
G04 Created by KiCad (PCBNEW 9.0.3) date 2025-08-01 16:23:24*
%MOMM*%
%LPD*%
G01*
G04 APERTURE LIST*
G04 Aperture macros list*
%AMRoundRect*
0 Rectangle with rounded corners*
0 $1 Rounding radius*
0 $2 $3 $4 $5 $6 $7 $8 $9 X,Y pos of 4 corners*
0 Add a 4 corners polygon primitive as box body*
4,1,4,$2,$3,$4,$5,$6,$7,$8,$9,$2,$3,0*
0 Add four circle primitives for the rounded corners*
1,1,$1+$1,$2,$3*
1,1,$1+$1,$4,$5*
1,1,$1+$1,$6,$7*
1,1,$1+$1,$8,$9*
0 Add four rect primitives between the rounded corners*
20,1,$1+$1,$2,$3,$4,$5,0*
20,1,$1+$1,$4,$5,$6,$7,0*
20,1,$1+$1,$6,$7,$8,$9,0*
20,1,$1+$1,$8,$9,$2,$3,0*%
G04 Aperture macros list end*
%TA.AperFunction,ComponentPad*%
%ADD10C,1.815000*%
%TD*%
%TA.AperFunction,ComponentPad*%
%ADD11R,1.815000X1.815000*%
%TD*%
%TA.AperFunction,ComponentPad*%
%ADD12C,1.400000*%
%TD*%
%TA.AperFunction,ComponentPad*%
%ADD13C,2.200000*%
%TD*%
%TA.AperFunction,SMDPad,CuDef*%
%ADD14RoundRect,0.152400X1.063600X0.609600X-1.063600X0.609600X-1.063600X-0.609600X1.063600X-0.609600X0*%
%TD*%
%TA.AperFunction,ComponentPad*%
%ADD15C,1.524000*%
%TD*%
%TA.AperFunction,SMDPad,CuDef*%
%ADD16RoundRect,0.152400X-1.063600X-0.609600X1.063600X-0.609600X1.063600X0.609600X-1.063600X0.609600X0*%
%TD*%
%TA.AperFunction,Conductor*%
%ADD17C,0.200000*%
%TD*%
G04 APERTURE END LIST*
D10*
%TO.P,D2,A*%
%TO.N,Net-(D2-PadA)*%
X116840000Y-97631250D03*
D11*
%TO.P,D2,C*%
%TO.N,GND*%
X114300000Y-97631250D03*
%TD*%
D12*
%TO.P,R3,1*%
%TO.N,Net-(D3-PadA)*%
X140493750Y-100330000D03*
%TO.P,R3,2*%
%TO.N,LED3*%
X140493750Y-95250000D03*
%TD*%
D10*
%TO.P,D3,A*%
%TO.N,Net-(D3-PadA)*%
X134710725Y-98017989D03*
D11*
%TO.P,D3,C*%
%TO.N,GND*%
X132170725Y-98017989D03*
%TD*%
D13*
%TO.P,SW4,1,1*%
%TO.N,button4*%
X155114461Y-106894033D03*
%TO.P,SW4,2,2*%
%TO.N,GND*%
X148764461Y-109434033D03*
%TD*%
%TO.P,SW1,1,1*%
%TO.N,button1*%
X98185419Y-106838470D03*
%TO.P,SW1,2,2*%
%TO.N,GND*%
X91835419Y-109378470D03*
%TD*%
D10*
%TO.P,D4,A*%
%TO.N,Net-(D4-PadA)*%
X153670000Y-97631250D03*
D11*
%TO.P,D4,C*%
%TO.N,GND*%
X151130000Y-97631250D03*
%TD*%
D12*
%TO.P,R4,1*%
%TO.N,Net-(D4-PadA)*%
X159543750Y-100330000D03*
%TO.P,R4,2*%
%TO.N,LED4*%
X159543750Y-95250000D03*
%TD*%
D13*
%TO.P,SW2,1,1*%
%TO.N,button2*%
X117157500Y-106838750D03*
%TO.P,SW2,2,2*%
%TO.N,GND*%
X110807500Y-109378750D03*
%TD*%
D10*
%TO.P,D1,A*%
%TO.N,Net-(D1-PadA)*%
X96520000Y-97631250D03*
D11*
%TO.P,D1,C*%
%TO.N,GND*%
X93980000Y-97631250D03*
%TD*%
D14*
%TO.P,U1,1,GPIO26/ADC0/A0*%
%TO.N,button1*%
X115370000Y-70961250D03*
D15*
X116205000Y-70961250D03*
D14*
%TO.P,U1,2,GPIO27/ADC1/A1*%
%TO.N,button2*%
X115370000Y-73501250D03*
D15*
X116205000Y-73501250D03*
D14*
%TO.P,U1,3,GPIO28/ADC2/A2*%
%TO.N,button3*%
X115370000Y-76041250D03*
D15*
X116205000Y-76041250D03*
D14*
%TO.P,U1,4,GPIO29/ADC3/A3*%
%TO.N,button4*%
X115370000Y-78581250D03*
D15*
X116205000Y-78581250D03*
D14*
%TO.P,U1,5,GPIO6/SDA*%
%TO.N,unconnected-(U1-GPIO6{slash}SDA-Pad5)*%
X115370000Y-81121250D03*
D15*
X116205000Y-81121250D03*
D14*
%TO.P,U1,6,GPIO7/SCL*%
%TO.N,unconnected-(U1-GPIO7{slash}SCL-Pad6)*%
X115370000Y-83661250D03*
D15*
X116205000Y-83661250D03*
D14*
%TO.P,U1,7,GPIO0/TX*%
%TO.N,unconnected-(U1-GPIO0{slash}TX-Pad7)*%
X115370000Y-86201250D03*
D15*
X116205000Y-86201250D03*
%TO.P,U1,8,GPIO1/RX*%
%TO.N,LED1*%
X131445000Y-86201250D03*
D16*
X132280000Y-86201250D03*
D15*
%TO.P,U1,9,GPIO2/SCK*%
%TO.N,LED2*%
X131445000Y-83661250D03*
D16*
X132280000Y-83661250D03*
D15*
%TO.P,U1,10,GPIO4/MISO*%
%TO.N,LED3*%
X131445000Y-81121250D03*
D16*
X132280000Y-81121250D03*
D15*
%TO.P,U1,11,GPIO3/MOSI*%
%TO.N,LED4*%
X131445000Y-78581250D03*
D16*
X132280000Y-78581250D03*
D15*
%TO.P,U1,12,3V3*%
%TO.N,unconnected-(U1-3V3-Pad12)*%
X131445000Y-76041250D03*
D16*
X132280000Y-76041250D03*
D15*
%TO.P,U1,13,GND*%
%TO.N,GND*%
X131445000Y-73501250D03*
D16*
X132280000Y-73501250D03*
D15*
%TO.P,U1,14,VBUS*%
%TO.N,unconnected-(U1-VBUS-Pad14)*%
X131445000Y-70961250D03*
D16*
X132280000Y-70961250D03*
%TD*%
D13*
%TO.P,SW3,1,1*%
%TO.N,button3*%
X136134241Y-106894033D03*
%TO.P,SW3,2,2*%
%TO.N,GND*%
X129784241Y-109434033D03*
%TD*%
D12*
%TO.P,R2,1*%
%TO.N,Net-(D2-PadA)*%
X121443750Y-100330000D03*
%TO.P,R2,2*%
%TO.N,LED2*%
X121443750Y-95250000D03*
%TD*%
%TO.P,R1,1*%
%TO.N,Net-(D1-PadA)*%
X102393750Y-100330000D03*
%TO.P,R1,2*%
%TO.N,LED1*%
X102393750Y-95250000D03*
%TD*%
D17*
%TO.N,GND*%
X110807500Y-109378750D02*
X129728958Y-109378750D01*
X132170725Y-107047549D02*
X132170725Y-98017989D01*
X114300000Y-105886250D02*
X114300000Y-97631250D01*
X110807500Y-109378750D02*
X114300000Y-105886250D01*
X129728958Y-109378750D02*
X129784241Y-109434033D01*
X129784241Y-109434033D02*
X148764461Y-109434033D01*
X91440000Y-109378750D02*
X110807500Y-109378750D01*
X151130000Y-107068494D02*
X151130000Y-97631250D01*
X129784241Y-109434033D02*
X132170725Y-107047549D01*
X91440000Y-109378750D02*
X93980000Y-106838750D01*
X93980000Y-106838750D02*
X93980000Y-97631250D01*
X148764461Y-109434033D02*
X151130000Y-107068494D01*
%TO.N,Net-(D1-PadA)*%
X96520000Y-97631250D02*
X99695000Y-97631250D01*
X99695000Y-97631250D02*
X102393750Y-100330000D01*
%TO.N,Net-(D2-PadA)*%
X116840000Y-97631250D02*
X118745000Y-97631250D01*
X118745000Y-97631250D02*
X121443750Y-100330000D01*
%TO.N,Net-(D3-PadA)*%
X138181739Y-98017989D02*
X140493750Y-100330000D01*
X134710725Y-98017989D02*
X138181739Y-98017989D01*
%TO.N,LED1*%
X133826250Y-86201250D02*
X132280000Y-86201250D01*
X135731250Y-88106250D02*
X133826250Y-86201250D01*
X135731250Y-90487500D02*
X135731250Y-88106250D01*
X102393750Y-95250000D02*
X102393750Y-92868750D01*
X104775000Y-90487500D02*
X135731250Y-90487500D01*
X102393750Y-92868750D02*
X104775000Y-90487500D01*
%TO.N,LED2*%
X136048750Y-83661250D02*
X132280000Y-83661250D01*
X121443750Y-95250000D02*
X123825000Y-92868750D01*
X138112500Y-85725000D02*
X136048750Y-83661250D01*
X138112500Y-92868750D02*
X138112500Y-85725000D01*
X123825000Y-92868750D02*
X138112500Y-92868750D01*
%TO.N,LED3*%
X140493750Y-83343750D02*
X138112500Y-80962500D01*
X137953750Y-81121250D02*
X132280000Y-81121250D01*
X138112500Y-80962500D02*
X137953750Y-81121250D01*
X140493750Y-95250000D02*
X140493750Y-83343750D01*
%TO.N,Net-(D4-PadA)*%
X153670000Y-97631250D02*
X156845000Y-97631250D01*
X156845000Y-97631250D02*
X159543750Y-100330000D01*
%TO.N,LED4*%
X154781250Y-78581250D02*
X132280000Y-78581250D01*
X159543750Y-95250000D02*
X159543750Y-83343750D01*
X159543750Y-83343750D02*
X154781250Y-78581250D01*
%TD*%
M02*
